<svg id="visual" viewBox="0 0 540 960" width="540" height="960" xmlns="http://www.w3.org/2000/svg" xmlns:xlink="http://www.w3.org/1999/xlink" version="1.1"><path d="M0 68L22.5 69.7C45 71.3 90 74.7 135 92.3C180 110 225 142 270 151.5C315 161 360 148 405 132C450 116 495 97 517.5 87.5L540 78L540 0L517.5 0C495 0 450 0 405 0C360 0 315 0 270 0C225 0 180 0 135 0C90 0 45 0 22.5 0L0 0Z" fill="#171d35"></path><path d="M0 231L22.5 247C45 263 90 295 135 319C180 343 225 359 270 368.7C315 378.3 360 381.7 405 404.2C450 426.7 495 468.3 517.5 489.2L540 510L540 76L517.5 85.5C495 95 450 114 405 130C360 146 315 159 270 149.5C225 140 180 108 135 90.3C90 72.7 45 69.3 22.5 67.7L0 66Z" fill="#202c54"></path><path d="M0 519L22.5 536.7C45 554.3 90 589.7 135 596.2C180 602.7 225 580.3 270 586.7C315 593 360 628 405 655.2C450 682.3 495 701.7 517.5 711.3L540 721L540 508L517.5 487.2C495 466.3 450 424.7 405 402.2C360 379.7 315 376.3 270 366.7C225 357 180 341 135 317C90 293 45 261 22.5 245L0 229Z" fill="#283c74"></path><path d="M0 625L22.5 650.7C45 676.3 90 727.7 135 729.3C180 731 225 683 270 679.7C315 676.3 360 717.7 405 749.7C450 781.7 495 804.3 517.5 815.7L540 827L540 719L517.5 709.3C495 699.7 450 680.3 405 653.2C360 626 315 591 270 584.7C225 578.3 180 600.7 135 594.2C90 587.7 45 552.3 22.5 534.7L0 517Z" fill="#304c96"></path><path d="M0 846L22.5 850.8C45 855.7 90 865.3 135 862.2C180 859 225 843 270 843C315 843 360 859 405 873.3C450 887.7 495 900.3 517.5 906.7L540 913L540 825L517.5 813.7C495 802.3 450 779.7 405 747.7C360 715.7 315 674.3 270 677.7C225 681 180 729 135 727.3C90 725.7 45 674.3 22.5 648.7L0 623Z" fill="#385dba"></path><path d="M0 961L22.5 961C45 961 90 961 135 961C180 961 225 961 270 961C315 961 360 961 405 961C450 961 495 961 517.5 961L540 961L540 911L517.5 904.7C495 898.3 450 885.7 405 871.3C360 857 315 841 270 841C225 841 180 857 135 860.2C90 863.3 45 853.7 22.5 848.8L0 844Z" fill="#416fdf"></path></svg>