<svg id="visual" viewBox="0 0 960 540" width="960" height="540" xmlns="http://www.w3.org/2000/svg" xmlns:xlink="http://www.w3.org/1999/xlink" version="1.1"><path d="M0 39L40 39.8C80 40.7 160 42.3 240 52.2C320 62 400 80 480 85.5C560 91 640 84 720 75C800 66 880 55 920 49.5L960 44L960 0L920 0C880 0 800 0 720 0C640 0 560 0 480 0C400 0 320 0 240 0C160 0 80 0 40 0L0 0Z" fill="#171d35"></path><path d="M0 131L40 140C80 149 160 167 240 180.5C320 194 400 203 480 208.3C560 213.7 640 215.3 720 227.8C800 240.3 880 263.7 920 275.3L960 287L960 42L920 47.5C880 53 800 64 720 73C640 82 560 89 480 83.5C400 78 320 60 240 50.2C160 40.3 80 38.7 40 37.8L0 37Z" fill="#202c54"></path><path d="M0 293L40 302.8C80 312.7 160 332.3 240 335.8C320 339.3 400 326.7 480 330.3C560 334 640 354 720 369.3C800 384.7 880 395.3 920 400.7L960 406L960 285L920 273.3C880 261.7 800 238.3 720 225.8C640 213.3 560 211.7 480 206.3C400 201 320 192 240 178.5C160 165 80 147 40 138L0 129Z" fill="#283c74"></path><path d="M0 352L40 366.3C80 380.7 160 409.3 240 410.2C320 411 400 384 480 382.3C560 380.7 640 404.3 720 422.3C800 440.3 880 452.7 920 458.8L960 465L960 404L920 398.7C880 393.3 800 382.7 720 367.3C640 352 560 332 480 328.3C400 324.7 320 337.3 240 333.8C160 330.3 80 310.7 40 300.8L0 291Z" fill="#304c96"></path><path d="M0 476L40 478.7C80 481.3 160 486.7 240 484.8C320 483 400 474 480 474C560 474 640 483 720 491.2C800 499.3 880 506.7 920 510.3L960 514L960 463L920 456.8C880 450.7 800 438.3 720 420.3C640 402.3 560 378.7 480 380.3C400 382 320 409 240 408.2C160 407.3 80 378.7 40 364.3L0 350Z" fill="#385dba"></path><path d="M0 541L40 541C80 541 160 541 240 541C320 541 400 541 480 541C560 541 640 541 720 541C800 541 880 541 920 541L960 541L960 512L920 508.3C880 504.7 800 497.3 720 489.2C640 481 560 472 480 472C400 472 320 481 240 482.8C160 484.7 80 479.3 40 476.7L0 474Z" fill="#416fdf"></path></svg>